# xmcd
#
# Track frame offsets: 
#        150
#        15510
#        40284
#        60263
#        80377
#        99139
#        116109
#        137210
#        154228
#        175038
#        198203
#        223230
#        243963
#        259819
#        285160
#
# Disc length: 4173 seconds
#
# Revision: 1
# Processed by: cddbd v1.5.2PL0 Copyright (c) Steve Scherf et al.
# Submitted via: ExactAudioCopyFreeDBPlugin 1.0
#
DISCID=c2104b0f
DTITLE=小娟 and 山谷里的居民 - 如风往事
DYEAR=2007
DGENRE=Folk
TTITLE0=爱的路上千万里
TTITLE1=随缘 (国语) - 难道真的我能忘记你
TTITLE2=爱在深秋
TTITLE3=往事随风
TTITLE4=命中注定
TTITLE5=海上花
TTITLE6=花祭
TTITLE7=阿弥陀佛在心间
TTITLE8=给爱
TTITLE9=爱的箴言
TTITLE10=再回首
TTITLE11=矜持
TTITLE12=500 Miles
TTITLE13=不再让你孤单
TTITLE14=晚霞 (原创)
EXTD=
EXTT0=
EXTT1=
EXTT2=
EXTT3=
EXTT4=
EXTT5=
EXTT6=
EXTT7=
EXTT8=
EXTT9=
EXTT10=
EXTT11=
EXTT12=
EXTT13=
EXTT14=
PLAYORDER=
